<?xml version="1.0" encoding="utf-8"?>
<!-- Generator: Adobe Illustrator 21.1.0, SVG Export Plug-In . SVG Version: 6.00 Build 0)  -->
<svg version="1.1" id="Layer_1" xmlns="http://www.w3.org/2000/svg" xmlns:xlink="http://www.w3.org/1999/xlink" x="0px" y="0px"
	 viewBox="0 0 424 644" style="enable-background:new 0 0 424 644;" xml:space="preserve">
<style type="text/css">
	.st0{fill:#00A78F;}
</style>
<path class="st0" d="M86.8,275.6c10-9.7,20.1-19.6,30.1-29.5c2.8-2.8,4.4-0.5,6.2,1.2c16.8,16.6,33.6,33.3,50.4,50
	c11.8,11.7,23.8,23.4,35.4,35.3c3.3,3.4,5.2,3,8.4-0.1c28.3-28.2,56.8-56.3,85.1-84.5c3.4-3.4,5.4-3.5,8.7,0.1
	c8,8.5,16.3,16.7,24.6,24.9c2.7,2.6,3,4.4,0.1,7.3c-39.9,39.5-79.7,79.2-119.4,118.8c-2.1,2.1-3.6,2.9-6.2,0.4
	c-40.7-40.6-81.5-81.1-122.2-121.7C87.7,277.5,87.5,277,86.8,275.6z"/>
</svg>
